<svg width="103" height="25" viewBox="0 0 103 25" fill="none" xmlns="http://www.w3.org/2000/svg"><path d="m81.763 10.418-4.57 10.533h-2.408l-4.552-10.533h2.634l3.216 7.524 3.254-7.524h2.426ZM89.833 10.886c.696.32 1.223.753 1.58 1.317.376.564.564 1.242.564 2.032 0 .77-.188 1.448-.564 2.03-.376.584-.903 1.017-1.58 1.318-.696.3-1.505.451-2.426.451H85.28v2.934h-2.445V10.435h4.57c.922-.019 1.731.15 2.427.451Zm-.903 4.722c.376-.32.564-.772.564-1.355s-.188-1.053-.564-1.354c-.376-.32-.94-.47-1.674-.47h-1.994v3.649h1.994c.734 0 1.298-.17 1.674-.47ZM102.999 10.418v10.533h-1.994l-5.248-6.395v6.395H93.35V10.418h2.012l5.248 6.395v-6.395h2.389ZM41.681 13.332v7.636h-2.125v-.884c-.546.659-1.355.997-2.39.997-.714 0-1.372-.17-1.955-.489-.583-.32-1.035-.79-1.373-1.373-.339-.602-.49-1.28-.49-2.07 0-.79.17-1.485.49-2.068a3.444 3.444 0 0 1 1.373-1.373 4.023 4.023 0 0 1 1.956-.49c.978 0 1.73.302 2.295.922v-.808h2.22Zm-2.727 5.36c.376-.376.545-.903.545-1.542 0-.64-.188-1.166-.545-1.542a1.888 1.888 0 0 0-1.392-.584c-.564 0-1.035.189-1.41.584-.377.376-.546.902-.546 1.542s.188 1.166.545 1.542a1.93 1.93 0 0 0 1.41.583c.565-.018 1.035-.206 1.393-.583ZM50.107 10.418h2.22V20.97h-2.22V10.418ZM61.92 13.332v7.636h-2.125v-.884c-.546.659-1.354.997-2.389.997-.715 0-1.373-.17-1.956-.489-.583-.32-1.035-.79-1.373-1.373-.339-.602-.49-1.28-.49-2.07 0-.79.17-1.485.49-2.068a3.445 3.445 0 0 1 1.373-1.373 4.023 4.023 0 0 1 1.956-.49c.978 0 1.73.302 2.295.922v-.808h2.22Zm-2.727 5.36c.376-.376.546-.903.546-1.542 0-.64-.189-1.166-.546-1.542a1.888 1.888 0 0 0-1.392-.584c-.564 0-1.034.189-1.41.584-.377.376-.546.902-.546 1.542s.188 1.166.546 1.542a1.93 1.93 0 0 0 1.41.583c.564-.018 1.035-.206 1.392-.583ZM64.817 20.855c-.602-.15-1.091-.357-1.449-.583l.734-1.598c.338.225.752.395 1.241.526.49.132.96.207 1.43.207.94 0 1.41-.226 1.41-.696 0-.226-.131-.376-.376-.47-.263-.094-.64-.17-1.185-.245a12.754 12.754 0 0 1-1.542-.32 2.386 2.386 0 0 1-1.053-.658c-.302-.32-.452-.752-.452-1.335 0-.49.132-.903.414-1.28.282-.375.696-.658 1.223-.864.526-.207 1.166-.32 1.9-.32a7.88 7.88 0 0 1 1.617.169 4.61 4.61 0 0 1 1.335.49l-.733 1.58a4.457 4.457 0 0 0-2.201-.565c-.47 0-.828.075-1.072.207-.245.131-.358.3-.358.508 0 .244.132.395.377.489.263.094.658.188 1.222.263.621.113 1.129.207 1.543.338.395.113.752.34 1.034.64.301.32.433.752.433 1.317 0 .47-.15.902-.433 1.26-.282.376-.696.658-1.241.865-.546.207-1.185.301-1.938.301-.64 0-1.26-.075-1.88-.226ZM48.396 19.033a1.62 1.62 0 0 1-.903.3c-.3 0-.545-.093-.696-.263-.169-.169-.244-.432-.244-.752v-3.292h1.862v-1.711h-1.862v-2.897h-2.22v2.897h-1.185v1.711h1.185v3.31c0 .904.245 1.58.753 2.05.489.471 1.204.697 2.106.697.358 0 .678-.038.997-.113l.226-.056v-1.881h-.019Z" fill="#1A1E3A"/><path d="M12.433 23.905c-6.508 0-11.831-5.23-11.85-11.643 0-3.122 1.204-6.076 3.423-8.276A11.61 11.61 0 0 1 12.264.562h.018c6.414.02 11.643 5.324 11.643 11.85v11.493H12.433Z" fill="#4D8EF8"/><path d="M7.524 20.387a3.404 3.404 0 1 0 0-6.809 3.404 3.404 0 0 0 0 6.81Z" fill="#fff"/><path d="M12.283 0h-.038a12.15 12.15 0 0 0-8.652 3.593A12.205 12.205 0 0 0 0 12.283C.019 19.015 5.586 24.49 12.414 24.49h12.057V12.433C24.49 5.586 19.016.019 12.283 0Zm4.213 22.195h-3.348v-3.988c0-3.573-2.86-6.489-6.377-6.508a6.4 6.4 0 0 0-3.837 1.28 6.765 6.765 0 0 1 1.674-2.671 6.93 6.93 0 0 1 4.928-2.05h.02c3.836.018 6.94 3.216 6.94 7.147v6.79Zm-9.066-7.9a2.81 2.81 0 0 1 2.802 2.803A2.81 2.81 0 0 1 7.43 19.9a2.81 2.81 0 0 1-2.803-2.802 2.81 2.81 0 0 1 2.803-2.803Zm14.784 7.9h-3.442v-6.771C18.772 10.232 14.634 6 9.555 6h-.019C7.053 6 4.74 6.96 2.991 8.71a.26.26 0 0 0-.057.075A9.947 9.947 0 0 1 5.23 5.21a9.866 9.866 0 0 1 7.072-2.915c5.474.019 9.932 4.552 9.932 10.138v9.762h-.02Z" fill="#1A1E3A"/></svg>
