<svg id="Layer_1" data-name="Layer 1" xmlns="http://www.w3.org/2000/svg" width="525.47" height="120" viewBox="0 0 525.47 120"><defs><style>.cls-1{fill:#fc0;}.cls-2{fill:#323232;}</style></defs><title>CyberGhost Logo (horizontal)</title><path class="cls-1" d="M337.26,280a60,60,0,1,0-60,60A60,60,0,0,0,337.26,280Z" transform="translate(-217.26 -220)"/><path class="cls-2" d="M306.16,270a29.66,29.66,0,1,0-59.31,0c0,16.37-6.93,46,9.45,46C329.37,316,306.16,286.37,306.16,270ZM270,287.13c-6.07,0-11-6.9-11-15.41s4.91-15.41,11-15.41,11,6.9,11,15.41S276,287.13,270,287.13Zm25.49-5.1c-4.79,0-8.68-5.46-8.68-12.19s3.89-12.19,8.68-12.19,8.69,5.45,8.69,12.19S300.24,282,295.44,282Z" transform="translate(-217.26 -220)"/><path class="cls-2" d="M381.63,310.76c-19,0-23.37-11.7-23.71-21.52C357.21,268.88,368,247,393.36,247a47.79,47.79,0,0,1,12.35,1.5l-2.26,9.22a37.28,37.28,0,0,0-11-1.71c-16.5,0-23.34,15.51-22.81,30.87,0.35,9.9,5.39,14.71,15.41,14.71a62.38,62.38,0,0,0,12.08-1.33,39.15,39.15,0,0,0,6.12-2.07,58.62,58.62,0,0,1,1.38,8.45,38.29,38.29,0,0,1-6.09,2.09,81.48,81.48,0,0,1-16.89,2.07h0Z" transform="translate(-217.26 -220)"/><path class="cls-2" d="M414.74,323.3c-5.15,5.25-10.42,7.22-15.67,7.22a28.23,28.23,0,0,1-6-.64l1.38-8.89a14.55,14.55,0,0,0,5,.81,10.41,10.41,0,0,0,7.4-3.31c2.34-2.42,3.53-5.41,3.36-10.34-0.4-11.47-3.45-24.73-7.55-37.9h11.32c2.57,8.81,4.75,20.2,5,28.68a16.14,16.14,0,0,1-.29,3.4h0.16a253.67,253.67,0,0,0,13.54-31.93l10.45-.08C433,298.78,423.86,313.76,414.74,323.3Z" transform="translate(-217.26 -220)"/><path class="cls-2" d="M453.34,311.13a65.27,65.27,0,0,1-14.27-1.46l7.79-50.18,0.07-.16c-1.87-.32-4.47-0.65-6.82-0.81l1-6.47a117.11,117.11,0,0,1,17.18-.72l-2.71,17.21c-0.52,3.63-1.6,7.43-3.94,14.47h0.16c3.84-8,9.3-13.66,16.41-13.66,6.14,0,9.59,4,9.89,12.52C478.63,297.06,471,311.13,453.34,311.13Zm11.14-32.89c-5.82,0-12.39,13.17-13.72,21.5l-0.47,2.75a19,19,0,0,0,4.55.57c9.3,0,13.2-10.83,12.91-19.23C467.61,279.85,466.42,278.23,464.48,278.23Z" transform="translate(-217.26 -220)"/><path class="cls-2" d="M489.95,294c-0.05.89-.17,2.26-0.13,3.15,0.16,4.61,2,6,7.56,6A30.79,30.79,0,0,0,509,300.7l2.87-1.17-1.61,8.75a47.72,47.72,0,0,1-15.93,2.93c-10.18,0-14.38-4.69-14.69-13.58-0.59-16.81,9.2-28.2,21.72-28.2,9.94,0,13.19,4.93,13.36,9.78C515.06,288.82,505.69,293.51,489.95,294Zm10.56-17c-5.26,0-8.4,4.85-9.67,10.1,9.29-.32,14.06-2.26,13.91-6.55C504.67,278.31,503.09,277,500.5,277Z" transform="translate(-217.26 -220)"/><path class="cls-2" d="M540.37,279.53c-7.12-2.66-13.57,9.29-15.55,22.14l-1.31,8.73h-10.1s4.34-26.61,4.92-30.56a10.09,10.09,0,0,0-3-8.81l14-1.2a88.7,88.7,0,0,1-3.08,12.53h0.16c4-8.56,8.23-14.47,15.8-12.85Z" transform="translate(-217.26 -220)"/><path class="cls-2" d="M574.63,310.86c-16.65,0-26.12-8.36-26.64-23.53-0.83-23.66,15.54-40.83,38.93-40.83a65.3,65.3,0,0,1,17.32,2.24l-2.65,9.67a45.3,45.3,0,0,0-15.6-2.9c-15.91,0-27.45,13-26.85,30.2,0.35,10.05,6.85,16.05,17.38,16.05a36,36,0,0,0,9.49-1.28l0.63-.17L590,278.14h10l-4.47,29.16a64.8,64.8,0,0,1-21,3.56h0Z" transform="translate(-217.26 -220)"/><path class="cls-2" d="M641,310.4h-10.1l4-25.21c0.72-4.93-.08-6.95-2.67-6.95-5.41,0-12.25,12.61-13.7,22L617,310.4h-10.1l7.92-50.91,0.08-.16c-1.87-.32-4.55-0.65-6.82-0.81l0.91-6.47a117.67,117.67,0,0,1,17.19-.72l-2.64,17a87.89,87.89,0,0,1-3.78,14.3l0.16,0.08c3.38-7.19,8.75-13.41,16.42-13.41s10.29,5.5,9,13.34Z" transform="translate(-217.26 -220)"/><path class="cls-2" d="M663.36,311.21c-11.23,0-15.86-5.33-16.18-14.38-0.59-16.81,10.35-27.4,23.2-27.4,11.48,0,16,6.14,16.27,14.63C687.24,300.62,676,311.21,663.36,311.21Zm5.8-33c-7.52,0-11.72,9-11.45,17,0.15,4.37,2,7.11,6.71,7.11,7.19,0,11.92-8,11.61-17C675.88,280.74,673.85,278.23,669.16,278.23Z" transform="translate(-217.26 -220)"/><path class="cls-2" d="M741.4,278.23h-9.45l-2.76,18.11c-0.72,4.85,0,6.14,3.28,6.14a21.81,21.81,0,0,0,5-.57l-0.69,8.24a36.76,36.76,0,0,1-8.21,1.05c-8.64,0-11.21-4.12-9.69-13.74l3-19.23h-6.45l1.34-8h6.37L725,257.87l10.43-2.1-2.24,14.46h9.54Z" transform="translate(-217.26 -220)"/><path class="cls-2" d="M688.13,311.45" transform="translate(-217.26 -220)"/><path class="cls-2" d="M706.87,276.95a23.86,23.86,0,0,1,6.26.8l1.25-7.64a41.7,41.7,0,0,0-7.48-.68c-11.47,0-17,5.66-16.76,13,0.33,9.45,10.64,10.67,10.82,16.08a3.81,3.81,0,0,1-2.38,3.76h0l-0.08,0a6.57,6.57,0,0,1-1,.37,15.85,15.85,0,0,1-11.87-1.12,19.55,19.55,0,0,1-6.22,7.24,48.1,48.1,0,0,0,14.31,2.42c12.53,0.1,18.1-7,17.87-13.66-0.31-8.89-10.82-11.23-11-16.16C700.53,278.8,702.67,276.95,706.87,276.95Z" transform="translate(-217.26 -220)"/></svg>