<?xml version="1.0" encoding="utf-8"?>
<!-- Generator: Adobe Illustrator 22.1.0, SVG Export Plug-In . SVG Version: 6.00 Build 0)  -->
<svg version="1.1" id="Layer_1" xmlns="http://www.w3.org/2000/svg" xmlns:xlink="http://www.w3.org/1999/xlink" x="0px" y="0px"
	 viewBox="0 0 257.5 97.8" style="enable-background:new 0 0 257.5 97.8;" xml:space="preserve">
<style type="text/css">
	.st0{fill:#002C4D;}
	.st1{fill:#000000;}
	.st2{fill:#006BED;}
	.st3{fill:#003E83;}
	.st4{fill:#F7F7F7;}
	.st5{fill:#3A77AF;}
	.st6{fill-rule:evenodd;clip-rule:evenodd;fill:#5A7F98;}
	.st7{fill-rule:evenodd;clip-rule:evenodd;fill:#39607C;}
	.st8{fill-rule:evenodd;clip-rule:evenodd;fill:#144260;}
	.st9{fill-rule:evenodd;clip-rule:evenodd;fill:#002C4C;}
	.st10{fill:#002C4C;}
	.st11{fill:none;}
	.st12{fill:none;stroke:#000000;stroke-miterlimit:10;}
	.st13{fill:#232C38;}
	.st14{fill:#003F68;}
	.st15{fill:#0C59C6;}
	.st16{fill:#003E76;}
	.st17{fill:#9F814D;}
	.st18{opacity:0.2;}
	.st19{fill-rule:evenodd;clip-rule:evenodd;fill:none;}
	.st20{fill-rule:evenodd;clip-rule:evenodd;fill:#FFFFFF;}
	.st21{fill:#092538;}
	.st22{fill-rule:evenodd;clip-rule:evenodd;fill:#006BED;}
	.st23{fill:none;stroke:#1A70DC;stroke-miterlimit:10;}
	.st24{fill:#F2F2F2;}
	.st25{fill:#EDECEB;}
	.st26{clip-path:url(#SVGID_14_);}
	.st27{fill:none;stroke:#004DD8;stroke-width:0.25;stroke-miterlimit:10;}
	.st28{fill-rule:evenodd;clip-rule:evenodd;fill:#003E83;}
	.st29{fill:#00273D;}
	.st30{fill-rule:evenodd;clip-rule:evenodd;fill:#FFFFFF;stroke:#FFFFFF;stroke-miterlimit:10;}
	.st31{fill-rule:evenodd;clip-rule:evenodd;fill:#FFFFFF;stroke:#FFFFFF;stroke-width:4;stroke-miterlimit:10;}
	.st32{fill:#FFFFFF;stroke:#DDDDDD;stroke-miterlimit:10;}
	.st33{fill:#1791FF;}
	.st34{fill:#D0D0D0;}
	.st35{opacity:0.5;fill:none;stroke:#E7E7E7;stroke-linecap:square;stroke-miterlimit:10;}
	.st36{clip-path:url(#SVGID_18_);}
	.st37{fill:none;stroke:#CECECE;stroke-linecap:square;stroke-miterlimit:10;}
	.st38{fill:none;stroke:#CECECE;stroke-miterlimit:10;}
	.st39{opacity:0.6;fill:url(#SVGID_23_);}
	.st40{fill:url(#SVGID_24_);}
	.st41{fill:#C8C8C8;}
</style>
<g>
	<g>
		<g>
			<path class="st22" d="M82.1,48.9c0-1.5-1-2.7-2-3.3c-1-0.6-2.1-1-3.2-1.3c-1.1-0.3-2.1-0.6-2.7-1c-0.7-0.3-0.9-0.6-1-0.9
				c-0.1-0.3,0-0.6,0.4-1.2c0.4-0.6,1.1-1.4,1.9-2.2c0.8-0.8,1.6-1.7,2.1-2.7c0.6-1.1,0.8-2.6,0.1-3.9c-0.7-1.3-2.2-1.8-3.4-1.9
				c-1.2,0-2.3,0.2-3.4,0.5c-1.1,0.2-2.1,0.5-2.9,0.5c-0.8,0-1.1-0.1-1.3-0.3c-0.2-0.2-0.3-0.5-0.3-1.3c0-0.8,0.3-1.8,0.5-2.9
				c0.2-1.1,0.5-2.2,0.5-3.4c0-1.2-0.6-2.7-1.8-3.4c-1.3-0.7-2.8-0.5-3.9,0.1c-1.1,0.6-1.9,1.4-2.7,2.1c-0.8,0.8-1.6,1.5-2.2,1.9
				c-0.6,0.4-1,0.5-1.3,0.4c-0.3-0.1-0.6-0.3-0.9-1c-0.4-0.7-0.7-1.7-1-2.7c-0.3-1.1-0.6-2.2-1.3-3.2c-0.6-1-1.9-2-3.3-2
				c-1.5,0-2.7,1-3.3,2c-0.6,1-0.9,2.2-1.3,3.2c-0.3,1.1-0.6,2-1,2.7c-0.3,0.7-0.6,0.9-0.9,1c-0.3,0.1-0.6,0-1.3-0.4
				c-0.6-0.4-1.4-1.1-2.2-1.9c-0.8-0.8-1.7-1.6-2.7-2.1c-1.1-0.6-2.6-0.8-3.9-0.1c-1.3,0.7-1.8,2.2-1.9,3.4c0,1.2,0.3,2.3,0.5,3.4
				c0.2,1.1,0.5,2.1,0.5,2.9c0,0.8-0.1,1.1-0.3,1.3c-0.2,0.2-0.6,0.3-1.3,0.3c-0.8,0-1.8-0.3-2.9-0.5c-1.1-0.2-2.2-0.5-3.4-0.5
				c-1.2,0-2.7,0.6-3.4,1.9c-0.7,1.3-0.5,2.8,0.1,3.9c0.6,1.1,1.4,1.9,2.1,2.7c0.8,0.8,1.5,1.6,1.9,2.2c0.4,0.6,0.5,1,0.4,1.2
				c-0.1,0.3-0.3,0.6-1,0.9c-0.7,0.3-1.7,0.7-2.7,1c-1.1,0.3-2.2,0.7-3.2,1.3c-1,0.6-2,1.8-2,3.3c0,1.5,1,2.7,2,3.3
				c1,0.6,2.1,1,3.2,1.3c1.1,0.3,2.1,0.6,2.7,1c0.7,0.3,0.9,0.6,1,0.9c0.1,0.3,0,0.6-0.4,1.2c-0.4,0.6-1.1,1.4-1.9,2.2
				c-0.8,0.8-1.6,1.7-2.1,2.7c-0.6,1.1-0.8,2.6-0.1,3.9c0.7,1.3,2.2,1.8,3.4,1.9c1.2,0,2.3-0.2,3.4-0.5c1.1-0.2,2.1-0.5,2.9-0.5
				c0.8,0,1.1,0.1,1.3,0.3c0.2,0.2,0.3,0.5,0.3,1.3c0,0.8-0.3,1.8-0.5,2.9c-0.2,1.1-0.5,2.2-0.5,3.4c0,1.2,0.6,2.7,1.9,3.4
				c1.3,0.7,2.8,0.5,3.9-0.1c1.1-0.6,1.9-1.4,2.7-2.1c0.8-0.8,1.6-1.5,2.2-1.9c0.6-0.4,1-0.5,1.3-0.4c0.3,0.1,0.6,0.3,0.9,1
				c0.4,0.7,0.7,1.7,1,2.7c0.3,1.1,0.6,2.2,1.3,3.2c0.6,1,1.8,2,3.3,2c1.5,0,2.7-1,3.3-2c0.6-1,1-2.2,1.3-3.2c0.3-1.1,0.6-2,1-2.7
				c0.3-0.7,0.6-0.9,0.9-1c0.3-0.1,0.6,0,1.3,0.4c0.6,0.4,1.4,1.1,2.2,1.9c0.8,0.8,1.7,1.6,2.7,2.1c1.1,0.6,2.6,0.8,3.9,0.1
				c1.3-0.7,1.8-2.2,1.8-3.4c0-1.2-0.2-2.3-0.5-3.4c-0.2-1.1-0.5-2.1-0.5-2.9c0-0.8,0.1-1.1,0.3-1.3c0.2-0.2,0.6-0.3,1.3-0.3
				c0.8,0,1.8,0.3,2.9,0.5c1.1,0.2,2.2,0.5,3.4,0.5c1.2,0,2.7-0.6,3.4-1.9c0.7-1.3,0.5-2.8-0.1-3.9c-0.6-1.1-1.4-1.9-2.1-2.7
				c-0.8-0.8-1.5-1.6-1.9-2.2c-0.4-0.6-0.5-1-0.4-1.2c0.1-0.3,0.3-0.6,1-0.9c0.7-0.3,1.7-0.7,2.7-1c1.1-0.3,2.2-0.7,3.2-1.3
				C81.1,51.6,82.1,50.4,82.1,48.9L82.1,48.9z M78.9,48.9c0,0.3,0,0.3-0.5,0.6c-0.5,0.3-1.4,0.6-2.5,1c-1,0.3-2.2,0.6-3.3,1.2
				c-1.1,0.6-2.2,1.5-2.6,2.9c-0.4,1.4,0.1,2.8,0.8,3.8c0.7,1,1.5,1.9,2.2,2.7c0.7,0.8,1.4,1.5,1.7,2.1c0.3,0.5,0.3,0.5,0.1,0.8
				c-0.1,0.3-0.2,0.3-0.8,0.3c-0.6,0-1.6-0.2-2.6-0.4c-1.1-0.2-2.2-0.5-3.4-0.6c-1.2-0.1-2.6,0.2-3.7,1.2c-1,1-1.3,2.5-1.2,3.7
				c0.1,1.2,0.4,2.4,0.6,3.4c0.2,1.1,0.4,2,0.4,2.6c0,0.6,0,0.6-0.3,0.7c-0.3,0.1-0.3,0.2-0.8-0.1c-0.5-0.3-1.3-0.9-2.1-1.7
				c-0.8-0.7-1.7-1.6-2.7-2.2c-1-0.7-2.3-1.2-3.8-0.8c-1.4,0.4-2.3,1.5-2.9,2.6c-0.6,1.1-0.9,2.2-1.2,3.2c-0.3,1-0.7,2-1,2.5
				c-0.3,0.5-0.3,0.5-0.6,0.5c-0.3,0-0.3,0-0.6-0.5c-0.3-0.5-0.6-1.4-1-2.5c-0.3-1-0.7-2.2-1.2-3.2c-0.6-1.1-1.5-2.2-2.9-2.6
				c-1.4-0.4-2.8,0.1-3.8,0.8c-1,0.7-1.9,1.5-2.7,2.2c-0.8,0.7-1.6,1.4-2.1,1.7c-0.5,0.3-0.5,0.3-0.8,0.1c-0.3-0.1-0.3-0.1-0.3-0.7
				c0-0.6,0.2-1.6,0.4-2.6c0.2-1.1,0.5-2.2,0.6-3.4c0.1-1.2-0.2-2.6-1.2-3.7c-1-1-2.5-1.3-3.7-1.2c-1.2,0.1-2.4,0.3-3.4,0.6
				c-1.1,0.2-2,0.4-2.6,0.4c-0.6,0-0.6,0-0.7-0.3c-0.1-0.3-0.2-0.3,0.1-0.8c0.3-0.5,0.9-1.3,1.7-2.1c0.7-0.8,1.6-1.7,2.2-2.7
				c0.7-1,1.2-2.4,0.8-3.8c-0.4-1.4-1.5-2.3-2.6-2.9c-1.1-0.6-2.2-0.9-3.3-1.2c-1-0.3-2-0.7-2.5-1c-0.5-0.3-0.5-0.3-0.5-0.6
				c0-0.3,0-0.3,0.5-0.6c0.5-0.3,1.4-0.6,2.5-1c1-0.3,2.2-0.6,3.3-1.2c1.1-0.6,2.2-1.5,2.6-2.9c0.4-1.4-0.1-2.8-0.8-3.8
				c-0.7-1-1.5-1.9-2.2-2.7c-0.7-0.8-1.4-1.5-1.7-2.1c-0.3-0.5-0.3-0.5-0.1-0.8c0.1-0.3,0.2-0.3,0.7-0.3c0.6,0,1.6,0.2,2.6,0.4
				c1.1,0.2,2.2,0.5,3.4,0.6c1.2,0.1,2.6-0.2,3.7-1.2c1-1,1.3-2.5,1.2-3.7c-0.1-1.2-0.4-2.4-0.6-3.4c-0.2-1.1-0.4-2-0.4-2.6
				c0-0.6,0-0.6,0.3-0.7c0.3-0.1,0.3-0.2,0.8,0.1c0.5,0.3,1.3,0.9,2.1,1.7c0.8,0.7,1.7,1.6,2.7,2.2c1,0.7,2.3,1.2,3.8,0.8
				c1.4-0.4,2.3-1.5,2.9-2.6c0.6-1.1,0.9-2.2,1.2-3.2c0.3-1,0.7-2,1-2.5c0.3-0.5,0.3-0.5,0.6-0.5c0.3,0,0.3,0,0.6,0.5
				c0.3,0.5,0.6,1.4,1,2.5c0.3,1,0.7,2.2,1.2,3.2c0.6,1.1,1.5,2.2,2.9,2.6h0c1.4,0.4,2.8-0.1,3.8-0.8c1-0.7,1.9-1.5,2.7-2.2
				c0.8-0.7,1.5-1.4,2.1-1.7c0.5-0.3,0.6-0.3,0.8-0.1c0.3,0.1,0.3,0.1,0.3,0.7c0,0.6-0.2,1.6-0.4,2.6c-0.2,1.1-0.5,2.2-0.6,3.4
				c-0.1,1.2,0.2,2.6,1.2,3.7c1,1,2.5,1.3,3.7,1.2c1.2-0.1,2.4-0.3,3.4-0.6c1.1-0.2,2-0.4,2.6-0.4c0.6,0,0.6,0,0.8,0.3
				c0.1,0.3,0.2,0.3-0.1,0.8c-0.3,0.5-0.9,1.3-1.7,2.1c-0.7,0.8-1.6,1.7-2.2,2.7c-0.7,1-1.2,2.4-0.8,3.8c0.4,1.4,1.5,2.3,2.6,2.9
				c1.1,0.6,2.2,0.9,3.3,1.2c1,0.3,2,0.7,2.5,1C78.9,48.6,78.9,48.6,78.9,48.9z"/>
			<path class="st22" d="M87.1,40.6c0.1-0.6,0.1-1.3-0.1-1.9c-0.4-1.3-1.3-2.3-2.2-2.9c-1-0.6-2-1-3-1.3c-2-0.7-3.6-1.3-4.1-2.2
				c-0.5-0.8-0.2-2.5,0.2-4.6c0.2-1,0.4-2.1,0.4-3.3c0-1.1-0.4-2.5-1.4-3.4c-1-1-2.2-1.3-3.4-1.4c-1.1,0-2.2,0.1-3.3,0.3
				c-2.1,0.4-3.8,0.6-4.6,0.2c-0.8-0.5-1.5-2.1-2.2-4.1c-0.3-1-0.7-2-1.3-3c-0.6-1-1.6-1.9-2.9-2.3c-1.3-0.4-2.6,0-3.7,0.5
				c-1,0.5-1.9,1.3-2.6,2c-1.6,1.4-3,2.4-3.9,2.4c-1,0-2.3-1.1-3.9-2.4c-0.8-0.7-1.6-1.4-2.6-2c-1-0.5-2.3-0.9-3.7-0.5
				c-1.3,0.4-2.3,1.3-2.9,2.3c-0.6,1-1,2-1.3,3c-0.7,2-1.4,3.6-2.2,4.1c-0.8,0.5-2.5,0.2-4.6-0.2c-1-0.2-2.1-0.4-3.3-0.3
				C23.3,19.7,22,20,21,21c-1,1-1.4,2.3-1.4,3.4c0,1.2,0.2,2.2,0.4,3.3c0.4,2.1,0.6,3.8,0.2,4.6c-0.5,0.8-2.1,1.5-4.1,2.2
				c-1,0.3-2.1,0.7-3,1.3c-1,0.6-1.9,1.6-2.3,2.9c-0.4,1.3,0,2.6,0.5,3.6c0.5,1,1.2,1.9,1.9,2.6c1.4,1.6,2.4,3,2.4,3.9
				c0,0.9-1.1,2.3-2.4,3.9c-0.7,0.8-1.4,1.6-1.9,2.6c-0.5,1-0.9,2.3-0.5,3.6c0.4,1.3,1.3,2.3,2.3,2.9c1,0.6,2,1,3,1.3
				c2,0.7,3.6,1.3,4.1,2.2c0.5,0.8,0.2,2.5-0.2,4.6c-0.2,1-0.4,2.1-0.4,3.3c0,1.1,0.4,2.5,1.4,3.4c1,1,2.2,1.3,3.4,1.4
				c1.2,0,2.2-0.1,3.3-0.3c2.1-0.4,3.8-0.6,4.6-0.2c0.8,0.5,1.5,2.1,2.2,4.1c0.3,1,0.7,2,1.3,3c0.6,1,1.6,1.9,2.9,2.3h0
				c1.3,0.3,2.6,0,3.6-0.5c1-0.5,1.9-1.3,2.6-2c1.6-1.4,2.9-2.4,3.9-2.4c0.9,0,2.3,1.1,3.9,2.4c0.8,0.7,1.6,1.4,2.6,2
				c1,0.5,2.3,0.9,3.7,0.5c1.3-0.4,2.3-1.3,2.9-2.3c0.6-1,1-2,1.3-3c0.7-2,1.4-3.6,2.2-4.1c0.8-0.5,2.5-0.2,4.6,0.2
				c1,0.2,2.1,0.4,3.3,0.3c1.2,0,2.4-0.4,3.4-1.4c1-1,1.4-2.3,1.4-3.4c0-1.2-0.2-2.2-0.4-3.3c-0.4-2.1-0.6-3.8-0.2-4.6
				c0.5-0.8,2.1-1.5,4.1-2.2c1-0.3,2.1-0.7,3-1.3c1-0.6,1.9-1.6,2.2-2.9c0.4-1.3,0-2.6-0.5-3.6c-0.5-1-1.2-1.9-1.9-2.6
				c-1.4-1.6-2.4-3-2.4-3.9c0-0.9,1.1-2.3,2.4-3.9c0.7-0.8,1.4-1.6,1.9-2.6C86.7,41.8,87,41.3,87.1,40.6L87.1,40.6z M83.9,39.5
				c0.1,0.4,0.1,0.8-0.3,1.3c-0.3,0.6-0.9,1.3-1.5,2.1c-1.3,1.5-3.2,3.3-3.2,6c0,2.7,1.9,4.5,3.2,6c0.7,0.8,1.2,1.5,1.5,2.1
				c0.3,0.6,0.4,0.9,0.3,1.3c-0.1,0.4-0.4,0.7-0.9,1c-0.6,0.4-1.4,0.7-2.3,1c-1.9,0.7-4.4,1.2-5.8,3.6c-1.3,2.3-0.6,4.8-0.2,6.8
				c0.2,1,0.3,1.9,0.3,2.5c0,0.7-0.2,1-0.5,1.3c-0.3,0.3-0.6,0.4-1.3,0.4c-0.7,0-1.6-0.1-2.6-0.3c-2-0.4-4.5-1.1-6.8,0.2
				c-2.3,1.3-2.9,3.9-3.6,5.8c-0.3,1-0.6,1.8-1,2.3c-0.4,0.6-0.6,0.8-1.1,0.9c-0.4,0.1-0.8,0.1-1.3-0.3c-0.6-0.3-1.3-0.9-2.1-1.6
				c-1.5-1.3-3.3-3.2-6-3.2c-2.7,0-4.4,1.9-6,3.2c-0.8,0.7-1.5,1.3-2.1,1.6c-0.6,0.3-0.9,0.4-1.3,0.3c-0.4-0.1-0.7-0.4-1.1-0.9
				c-0.3-0.6-0.7-1.4-1-2.3c-0.7-1.9-1.3-4.5-3.6-5.8c-2.3-1.3-4.8-0.6-6.8-0.2c-1,0.2-1.9,0.3-2.6,0.3c-0.7,0-1-0.1-1.3-0.4
				c-0.3-0.3-0.4-0.7-0.5-1.3c0-0.7,0.1-1.5,0.3-2.5c0.4-2,1.1-4.5-0.2-6.8c-1.3-2.3-3.9-2.9-5.8-3.6c-1-0.3-1.8-0.7-2.4-1
				c-0.6-0.3-0.8-0.6-0.9-1c-0.1-0.4-0.1-0.8,0.2-1.3c0.3-0.6,0.9-1.3,1.5-2.1c1.3-1.5,3.2-3.3,3.2-6c0-2.7-1.9-4.5-3.2-6
				c-0.7-0.8-1.2-1.5-1.5-2.1c-0.3-0.6-0.4-0.9-0.2-1.3c0.1-0.4,0.3-0.7,0.9-1c0.6-0.4,1.4-0.7,2.4-1c1.9-0.7,4.4-1.2,5.8-3.6
				c1.3-2.3,0.6-4.8,0.2-6.8c-0.2-1-0.3-1.9-0.3-2.5c0-0.7,0.2-1,0.5-1.3c0.3-0.3,0.6-0.4,1.3-0.4c0.7,0,1.6,0.1,2.6,0.3
				c2,0.4,4.5,1.1,6.8-0.2c2.3-1.3,2.9-3.9,3.6-5.8c0.3-1,0.6-1.8,1-2.3c0.4-0.6,0.6-0.8,1.1-0.9c0.4-0.1,0.8-0.1,1.3,0.3
				c0.6,0.3,1.3,0.9,2.1,1.6c1.5,1.3,3.3,3.2,6,3.2c2.7,0,4.5-1.9,6-3.2c0.8-0.7,1.5-1.3,2.1-1.6c0.6-0.3,0.9-0.4,1.3-0.3
				c0.4,0.1,0.7,0.4,1.1,0.9c0.3,0.6,0.7,1.4,1,2.3c0.7,1.9,1.3,4.4,3.6,5.8l0,0c2.3,1.3,4.8,0.6,6.8,0.2c1-0.2,1.9-0.3,2.6-0.3
				c0.7,0,1,0.1,1.3,0.4c0.3,0.3,0.4,0.7,0.5,1.3c0,0.7-0.1,1.5-0.3,2.5c-0.4,2-1.1,4.5,0.2,6.8c1.3,2.3,3.9,2.9,5.8,3.6
				c1,0.3,1.8,0.7,2.3,1C83.6,38.8,83.8,39.1,83.9,39.5z"/>
			<path class="st22" d="M93.4,48.9c0-2.7-1.7-4.5-3.2-6c-1.5-1.5-2.8-2.9-3.1-4.1c-0.3-1.3,0.1-3.1,0.7-5.2
				c0.5-2.1,1.1-4.5-0.2-6.8l0,0c-1.3-2.3-3.8-3-5.8-3.6c-2.1-0.6-3.9-1.1-4.8-2c-0.9-0.9-1.4-2.7-2-4.8c-0.6-2.1-1.3-4.5-3.6-5.8h0
				c-2.3-1.3-4.8-0.7-6.9-0.2c-2.1,0.5-3.9,1-5.1,0.7h0c-1.2-0.3-2.6-1.7-4.2-3.2c-1.5-1.5-3.4-3.2-6-3.2c-2.7,0-4.5,1.7-6.1,3.2
				c-1.5,1.5-2.9,2.8-4.1,3.2h0c-1.2,0.3-3.1-0.1-5.1-0.7c-2.1-0.5-4.6-1.1-6.9,0.2c-2.3,1.3-3,3.8-3.6,5.8c-0.6,2.1-1.1,3.9-2,4.8
				c-0.9,0.9-2.7,1.4-4.8,2c-2.1,0.6-4.5,1.3-5.9,3.6C9,29,9.6,31.4,10.2,33.5c0.5,2.1,1,3.9,0.6,5.2c-0.3,1.2-1.7,2.6-3.2,4.1
				c-1.5,1.5-3.2,3.4-3.2,6c0,2.7,1.7,4.5,3.2,6c1.5,1.5,2.8,2.9,3.2,4.1c0.3,1.3-0.1,3.1-0.6,5.2c-0.5,2.1-1.1,4.5,0.2,6.8v0
				c1.3,2.3,3.8,3,5.9,3.6c2,0.6,3.8,1.1,4.8,2l0,0c0.9,0.9,1.4,2.7,2,4.8c0.6,2.1,1.3,4.5,3.6,5.8c2.3,1.3,4.8,0.7,6.9,0.2
				c2.1-0.5,3.9-1,5.1-0.7c1.3,0.3,2.6,1.7,4.1,3.2c1.5,1.5,3.4,3.2,6.1,3.2c2.7,0,4.5-1.7,6-3.2c1.5-1.5,2.9-2.8,4.2-3.2
				c1.3-0.3,3.1,0.1,5.1,0.7c2.1,0.5,4.6,1.1,6.9-0.2c2.3-1.3,3-3.8,3.6-5.8c0.6-2.1,1.1-3.9,2-4.8c0.9-0.9,2.7-1.4,4.8-2
				c2.1-0.6,4.5-1.3,5.8-3.6c1.3-2.3,0.7-4.8,0.2-6.9c-0.5-2.1-1-3.9-0.7-5.2c0.3-1.2,1.7-2.6,3.1-4.1
				C91.6,53.4,93.4,51.6,93.4,48.9L93.4,48.9z M90.2,48.9c0,1.2-0.9,2.4-2.4,3.8c-1.4,1.5-3.3,3.1-3.9,5.6c-0.7,2.5,0.2,4.8,0.7,6.8
				c0.5,2,0.7,3.5,0.1,4.5c-0.6,1-2,1.6-4,2.2c-2,0.6-4.4,1-6.2,2.8c-1.8,1.8-2.3,4.2-2.8,6.2c-0.6,2-1.1,3.4-2.1,4
				c-1,0.6-2.5,0.4-4.5-0.1c-2-0.5-4.3-1.3-6.8-0.6c-2.5,0.7-4.1,2.5-5.6,3.9c-1.5,1.4-2.6,2.3-3.8,2.3c-1.2,0-2.4-0.9-3.8-2.3
				c-1.5-1.4-3.1-3.3-5.5-3.9c-2.5-0.7-4.8,0.1-6.8,0.6c-2,0.5-3.5,0.7-4.5,0.1c-1-0.6-1.6-2-2.2-4c-0.6-2-1-4.4-2.8-6.2
				c-1.8-1.8-4.2-2.3-6.2-2.8c-2-0.6-3.3-1.1-3.9-2.2c-0.6-1-0.4-2.5,0.1-4.5c0.5-2,1.3-4.3,0.7-6.8c-0.7-2.5-2.5-4.1-4-5.6
				c-1.4-1.5-2.3-2.6-2.3-3.8c0-1.2,0.9-2.4,2.3-3.8c1.4-1.5,3.3-3.1,4-5.6c0.7-2.5-0.2-4.8-0.7-6.8c-0.5-2-0.7-3.5-0.1-4.5
				c0.6-1,2-1.6,3.9-2.2c2-0.6,4.4-1,6.2-2.8c1.8-1.8,2.3-4.2,2.8-6.2c0.6-2,1.1-3.4,2.2-4c1-0.6,2.5-0.4,4.5,0.1
				c2,0.5,4.3,1.3,6.8,0.6c2.5-0.7,4.1-2.5,5.5-3.9c1.5-1.4,2.6-2.3,3.8-2.3c1.2,0,2.4,0.9,3.8,2.3c1.5,1.4,3.1,3.3,5.6,3.9
				c2.5,0.7,4.8-0.1,6.8-0.6c2-0.5,3.5-0.7,4.5-0.1c1,0.6,1.6,2,2.1,4c0.6,2,1,4.4,2.8,6.2c1.8,1.8,4.2,2.3,6.2,2.8
				c2,0.6,3.4,1.1,4,2.2c0.6,1,0.4,2.5-0.1,4.5c-0.5,2-1.3,4.3-0.7,6.8c0.7,2.5,2.5,4.1,3.9,5.6C89.3,46.5,90.2,47.7,90.2,48.9z"/>
			<path class="st22" d="M97.8,37.9c0-0.7,0-1.3-0.2-2.1c-0.8-2.8-3.2-4.3-5.3-5.6c-2.1-1.2-4.1-2.3-4.8-3.6c-0.8-1.3-0.8-3.5-0.8-6
				c0-2.4,0-5.3-2.1-7.4c-2.1-2.1-4.9-2.2-7.4-2.1c-2.5,0-4.7,0-6-0.8c-1.3-0.8-2.4-2.7-3.6-4.8c-1.2-2.1-2.7-4.6-5.5-5.4
				c-2.8-0.8-5.4,0.6-7.5,1.9c-2.1,1.2-4,2.3-5.6,2.3c-1.6,0-3.4-1.1-5.6-2.3c-2.1-1.2-4.6-2.6-7.5-1.9C33,1,31.5,3.5,30.3,5.6
				c-1.2,2.1-2.3,4-3.7,4.8c-1.3,0.8-3.5,0.8-6,0.8c-2.5,0-5.3,0.1-7.4,2.1c-2.1,2.1-2.1,4.9-2.1,7.4c0,2.5,0,4.6-0.8,6
				c-0.8,1.3-2.7,2.4-4.8,3.6C3.4,31.5,1,33,0.2,35.9c-0.8,2.8,0.6,5.3,1.8,7.5c1.2,2.1,2.3,4,2.3,5.6c0,1.6-1.1,3.5-2.3,5.6
				c-1.2,2.1-2.6,4.6-1.8,7.5c0.8,2.8,3.2,4.3,5.3,5.6c2.1,1.2,4,2.3,4.8,3.6c0.8,1.3,0.8,3.5,0.8,6c0,2.4,0,5.3,2.1,7.4
				c2.1,2.1,4.9,2.2,7.4,2.1c2.4,0,4.6,0,6,0.8c1.3,0.8,2.5,2.7,3.7,4.8c1.2,2.1,2.7,4.6,5.5,5.4c2.8,0.8,5.4-0.6,7.5-1.9
				c2.1-1.2,4-2.3,5.6-2.3c1.6,0,3.5,1.1,5.6,2.3c2.1,1.2,4.6,2.6,7.5,1.9c2.8-0.8,4.3-3.2,5.5-5.4c1.2-2.1,2.3-4,3.6-4.8
				c1.3-0.8,3.6-0.8,6-0.8c2.5,0,5.3-0.1,7.4-2.1c2.1-2.1,2.1-4.9,2.1-7.4c0-2.5,0-4.6,0.8-6c0.8-1.3,2.7-2.4,4.8-3.6
				c2.1-1.2,4.6-2.7,5.3-5.6c0.8-2.8-0.6-5.3-1.9-7.5c-1.2-2.1-2.3-4-2.3-5.6c0-1.6,1.1-3.5,2.3-5.6C96.6,41.7,97.7,39.9,97.8,37.9
				L97.8,37.9z M94.5,36.7c0.4,1.4-0.4,3-1.6,5.1c-1.2,2-2.7,4.3-2.7,7.2c0,2.8,1.6,5.1,2.7,7.2c1.2,2,1.9,3.7,1.6,5.1
				c-0.4,1.4-1.8,2.4-3.9,3.6c-2,1.2-4.6,2.4-6,4.8c-1.4,2.5-1.2,5.2-1.2,7.6c0,2.4-0.2,4.1-1.2,5.1c-1,1-2.8,1.2-5.1,1.2
				c-2.3,0-5.1-0.2-7.6,1.2c-2.5,1.4-3.7,3.9-4.8,6c-1.2,2-2.2,3.5-3.6,3.8c-1.4,0.4-3-0.3-5.1-1.5c-2-1.2-4.3-2.8-7.2-2.8
				c-2.8,0-5.1,1.6-7.1,2.8c-2,1.2-3.7,1.9-5.1,1.5c-1.4-0.4-2.4-1.8-3.6-3.8c-1.2-2-2.4-4.6-4.8-6c-2.5-1.4-5.2-1.2-7.6-1.2
				c-2.4,0-4.1-0.2-5.1-1.2c-1-1-1.2-2.8-1.2-5.1c0-2.4,0.2-5.1-1.2-7.6c-1.4-2.5-4-3.7-6-4.8c-2-1.2-3.5-2.2-3.9-3.6
				c-0.4-1.4,0.4-3,1.6-5.1c1.2-2,2.7-4.3,2.7-7.2c0-2.8-1.6-5.1-2.7-7.2c-1.2-2-1.9-3.7-1.6-5.1c0.4-1.4,1.8-2.4,3.9-3.6
				c2-1.2,4.6-2.4,6-4.8c1.4-2.5,1.2-5.2,1.2-7.6c0-2.4,0.2-4.1,1.2-5.1c1-1,2.8-1.2,5.1-1.2c2.3,0,5.1,0.2,7.6-1.2
				c2.5-1.4,3.7-3.9,4.8-6c1.2-2,2.2-3.5,3.6-3.8c1.4-0.4,3,0.3,5.1,1.5c2,1.2,4.3,2.8,7.1,2.8c2.8,0,5.1-1.6,7.2-2.8
				c2-1.2,3.7-1.9,5.1-1.5c1.4,0.4,2.4,1.8,3.6,3.8c1.2,2,2.4,4.6,4.8,6h0c2.5,1.4,5.2,1.2,7.6,1.2c2.4,0,4.1,0.2,5.1,1.2
				c1,1,1.2,2.8,1.2,5.1c0,2.4-0.2,5.1,1.2,7.6c1.4,2.5,4,3.7,6,4.8C92.7,34.3,94.1,35.3,94.5,36.7z"/>
		</g>
		<g>
			<g>
				<path class="st1" d="M137.7,72.5c-3.2,0-5.9-0.5-7.9-1.5c-2-1-3.6-2.6-4.8-4.6c-1.1-2-1.9-4.5-2.2-7.5c-0.4-3-0.6-6.5-0.6-10.4
					c0-3.8,0.2-7.1,0.6-10c0.4-2.9,1.2-5.3,2.3-7.2c1.1-1.9,2.7-3.4,4.8-4.4c2-1,4.6-1.5,7.7-1.5c3.1,0,5.7,0.5,7.7,1.5
					c2,1,3.6,2.4,4.8,4.4c1.1,1.9,1.9,4.4,2.3,7.2c0.4,2.8,0.6,6.2,0.6,10c0,3.9-0.2,7.5-0.6,10.4c-0.4,3-1.1,5.5-2.2,7.5
					c-1.1,2-2.7,3.6-4.8,4.6C143.6,72,140.9,72.5,137.7,72.5z M137.7,33c-1.1,0-2,0.2-2.7,0.6c-0.7,0.4-1.3,1.1-1.7,2.2
					c-0.5,1.1-0.8,2.8-1,4.8c-0.2,2.1-0.3,4.8-0.3,8.1c0,3.2,0.1,5.9,0.3,8c0.2,2.1,0.6,3.7,1,4.9c0.4,1.2,1,2,1.7,2.4
					c0.7,0.5,1.6,0.7,2.7,0.7s2-0.2,2.7-0.7c0.7-0.4,1.3-1.3,1.7-2.4c0.5-1.2,0.8-2.9,1-4.9c0.2-2.1,0.3-4.8,0.3-8
					c0-3.3-0.1-6-0.3-8.1c-0.2-2-0.6-3.7-1-4.8c-0.4-1.1-1-1.9-1.7-2.2C139.7,33.2,138.8,33,137.7,33z"/>
			</g>
			<g>
				<polygon class="st1" points="165.4,71.8 156.2,26 166.2,26 172.7,63.2 179.4,26 188.8,26 179.6,71.8 				"/>
			</g>
			<g>
				<path class="st1" d="M194.1,71.8V26l0.3,0c1.2-0.1,2.5-0.2,3.9-0.3c1.2-0.1,2.5-0.2,3.9-0.2c1.4-0.1,2.8-0.1,4.1-0.1
					c2.9,0,5.4,0.3,7.4,1c2,0.7,3.5,1.7,4.7,3c1.2,1.3,2,2.9,2.5,4.9c0.5,1.9,0.7,4.1,0.7,6.5c0,2.9-0.3,5.3-0.9,7.3
					c-0.6,2-1.6,3.6-2.8,4.9c-1.2,1.2-2.8,2.1-4.6,2.7c-1.8,0.5-3.9,0.8-6.3,0.8h-3.3v15.5H194.1z M207.4,48c1.4,0,2.5-0.6,3.3-1.8
					c0.8-1.2,1.3-2.9,1.3-5c0-2.5-0.3-4.4-1-5.6c-0.6-1.2-1.7-1.8-3.5-1.8c-1.3,0-2.4,0.1-3.1,0.2c-0.3,0.1-0.5,0.1-0.7,0.1V48
					H207.4z"/>
			</g>
			<g>
				<polygon class="st1" points="244.1,71.8 236.2,38.2 236.2,71.8 227.7,71.8 227.7,26 241.1,26 249.2,60.2 249.2,26 257.5,26 
					257.5,71.8 				"/>
			</g>
		</g>
	</g>
</g>
</svg>
