<svg fill="none" xmlns="http://www.w3.org/2000/svg" viewBox="0 0 512 170"><path fill-rule="evenodd" clip-rule="evenodd" d="m152 24-1-7-6-2C120 4 81 0 77 0h-2C71 0 32 4 7 15l-6 2-1 7c0 6-1 30 6 56a123 123 0 0 0 65 88l5 2 5-2c18-9 33-22 45-40 9-13 16-29 20-48 7-26 6-50 6-56Z" fill="#F0F0F0"/><path d="M76 160c-17-8-31-20-41-36-9-13-15-28-20-46-6-26-5-49-5-54 25-10 63-14 66-14s41 4 66 14c0 5 1 28-5 54-5 18-11 33-20 46a95 95 0 0 1-41 36Z" fill="#2CDC82"/><path d="M76 160c-17-8-31-20-41-36-9-13-15-28-20-46-6-26-5-49-5-54 25-10 63-14 66-14s41 4 66 14c0 5 1 28-5 54-5 18-11 33-20 46a95 95 0 0 1-41 36Z" fill="#28C675"/><path fill-rule="evenodd" clip-rule="evenodd" d="M34 124V33l17 9a41 41 0 0 1 67 32 41 41 0 0 1-62 35v39c-8-7-16-15-22-24Zm39-43-4 12c-7-3-13-11-13-19 0-12 9-21 21-21 11 0 20 9 20 21 0 8-5 16-13 19l-3-12a8 8 0 0 0-4-15c-5 0-8 3-8 8 0 3 2 5 4 7Z" fill="#F0F0F0"/><path d="M183 92v20h-11V55h22l11 2 7 7c2 3 3 6 3 10 0 5-2 10-6 13s-9 5-16 5h-10Zm0-10h11c3 0 5 0 7-2l2-6-2-7c-2-2-4-2-7-2h-11v17Zm79-27v37c0 6-2 11-6 15-4 3-9 5-16 5-6 0-11-2-15-5-4-4-6-8-6-14V55h12v37l2 8c2 2 4 3 8 3 6 0 9-4 9-11V55h12Zm29 36h-9v21h-11V55h20c7 0 12 1 15 4 4 3 6 8 6 13 0 4-1 7-3 10-1 2-4 5-7 6l12 23v1h-12l-11-21Zm-9-9h10c2 0 5-1 6-3 2-1 3-3 3-6s-1-5-3-6c-1-2-4-3-7-3h-9v18Zm70 5h-22v16h26v9h-38V55h38v10h-26v13h22v9Zm35 11 13-43h13l-20 57h-12l-20-57h13l13 43Zm42-6v20h-11V55h21l11 2 8 7 2 10c0 5-2 10-6 13-3 3-8 5-15 5h-10Zm0-10h10c3 0 6 0 7-2 2-1 2-3 2-6s0-5-2-7-4-2-7-2h-10v17Zm83 30h-12l-23-38v38h-12V55h12l23 38V55h12v57Z" fill="#000"/></svg>