<?xml version="1.0" encoding="UTF-8"?>
<svg xmlns="http://www.w3.org/2000/svg" xmlns:xlink="http://www.w3.org/1999/xlink" width="173px" height="54px" viewBox="0 0 173 54">
  <!-- Generator: Sketch 50.2 (55047) - http://www.bohemiancoding.com/sketch -->
  <title>vyprvpn_logo_light</title>
  <desc>Created with Sketch.</desc>
  <defs></defs>
  <g id="Page-1" stroke="none" stroke-width="1" fill="none" fill-rule="evenodd">
    <g id="vyprvpn_pricing_seo_landing-copy-2" transform="translate(-203.000000, -41.000000)">
      <g id="vyprvpn_logo_light" transform="translate(203.000000, 41.000000)">
        <g id="logo">
          <path d="M28.9709412,9.60666289 C29.3318021,9.65311848 29.6445482,9.9740568 29.3579912,10.0032054 C29.159137,10.0223342 28.9943895,9.99136379 28.8198973,9.96100065 C28.5698831,9.91727774 28.2988567,9.87355483 27.8777,9.97587859 C27.8777,9.97587859 28.5333402,9.54836567 28.9709412,9.60666289 M31.4777779,10.0032306 C31.1896895,9.97408021 31.5039678,9.65312174 31.864535,9.60666323 C32.3024537,9.54836236 32.9572,9.97590211 32.9572,9.97590211 C32.5366397,9.87357193 32.2662143,9.91729758 32.0155835,9.96102324 C31.8788481,9.98501162 31.7472898,10.009 31.6017229,10.009 C31.5618291,10.009 31.520108,10.0071781 31.4777779,10.0032306 M20.6926758,5.13703778 C19.3750035,3.91162759 19.6146633,2.56932372 20.1098182,1.5273 C20.1098182,1.5273 22.6696411,5.04989885 25.858,6.35303574 C25.858,6.35303574 25.5848426,6.3752 25.1560738,6.3752 C24.0390823,6.3752 21.8638724,6.2246045 20.6926758,5.13703778 M34.978,6.35303574 C38.1657516,5.04989885 40.7258804,1.5273 40.7258804,1.5273 C41.2198174,2.56932372 41.4603909,3.91162759 40.1430224,5.13703778 C38.9718252,6.2246045 36.7969186,6.3752 35.6796221,6.3752 C35.250853,6.3752 34.978,6.35303574 34.978,6.35303574 M30.6171706,23.6904864 C35.9238138,23.6904864 41.7661155,22.4948216 45.3872158,20.0281935 C41.7816462,23.6179207 34.58147,26.2819033 26.159237,26.6799522 C16.9105247,27.1208119 8.84336727,24.711872 5.28499898,20.9029295 C4.24657058,22.2619432 3.70878039,23.7214559 3.7836934,25.2222612 C4.08852239,31.2922795 14.2958777,35.7409544 26.5840486,35.1561777 C30.5115006,34.9697536 34.1731027,34.2911576 37.3304122,33.2555017 C34.9383726,34.8264438 32.0192012,36.1775633 28.7540899,37.1294194 C21.2679652,39.3164113 14.1055499,38.7871975 10.327924,36.1578279 C9.78191165,37.5459893 9.46185645,38.9557079 10.0699918,40.2221168 C12.0722401,44.3771888 21.5094531,46.5192446 31.4588762,43.6144895 C32.1547145,43.4101516 32.833195,43.1885073 33.4949267,42.9510746 C30.0114714,49.8010987 19.2087708,53.3216 19.2087708,53.3216 C36.3608064,50.6072161 43.5405795,38.3721457 45.2593156,34.9615558 C46.1591853,33.2136018 46.6177992,31.3709177 46.1025438,29.7003875 C45.9901743,29.340595 45.8391301,28.9965908 45.6539792,28.6698932 C47.4144351,26.9817528 48.3773415,25.0822913 48.278371,23.1099605 C48.2071123,21.6835426 47.5834462,20.3491223 46.5194378,19.1455633 C48.0094759,17.8181263 48.913,16.1922286 48.913,14.259065 C48.913,8.5500537 43.6748748,8.08885133 43.6748748,8.08885133 C43.6748748,8.08885133 51.6515885,11.2823513 40.9472492,13.452644 C30.243519,15.6241511 19.2291739,13.6387645 10.7661347,9.17217592 C2.86859741,5.00374451 8.14478817,1.46958021 18.9206906,1.09794644 C18.5634835,2.0206548 18.470908,3.37966849 18.3628018,4.01757907 C18.3628018,4.01757907 16.7786656,4.13508093 16.9903101,5.4816461 C17.2022591,6.83003302 18.4328425,8.48507851 21.7351057,9.4475614 C25.0416323,10.4100443 24.7249268,10.5263317 26.1668501,11.1019997 C27.5670536,11.6646119 29.6828895,11.4942797 30.4183161,11.0267013 C31.151611,11.4942797 33.268665,11.6646119 34.669173,11.1019997 C36.1098782,10.5263317 35.7943909,10.4100443 39.0993948,9.4475614 C42.4040942,8.48507851 43.6349821,6.83003302 43.8454085,5.4816461 C44.0558349,4.13508093 42.4738303,4.01757907 42.4738303,4.01757907 C42.2624904,2.78730126 42.1233227,-1.11880043 40.0178406,0.582395666 C39.5631856,0.948260612 37.9842262,0.48523651 37.3200584,0.450016316 C35.0379521,0.336765175 33.1033082,1.17992447 32.3118492,1.74709105 C31.5301349,2.30909604 30.7191862,2.36708791 30.4183161,2.36617704 C30.1162278,2.36405169 29.3046701,2.30909604 28.5226513,1.74709105 C27.7324104,1.17992447 25.7983755,0.336765175 23.5159647,0.450016316 C22.8527104,0.48523651 21.2722285,0.948260612 20.8175735,0.582395666 C19.9990117,-0.0795010841 19.4801021,0.112084626 19.1350759,0.659515746 C17.3935005,0.378361438 14.7986476,0.0547 12.0804623,0.0547 C6.34687577,0.0547 0.0621,1.49417362 0.0621,7.80678615 C0.0621,18.1062639 20.1619323,23.6904864 30.6171706,23.6904864 Z" id="Fill-1" fill="#000000"></path>
          <path d="M34.978,6.35298899 C34.978,6.35298899 38.5217395,6.64234201 40.1430224,5.13697761 C41.4603909,3.9115539 41.2198174,2.56923522 40.7258804,1.5272 C40.7258804,1.5272 38.1657516,5.04983772 34.978,6.35298899" id="Fill-2" fill="#FAC70B"></path>
          <path d="M20.6926758,5.13697761 C22.3136533,6.64234201 25.858,6.35298899 25.858,6.35298899 C22.6696411,5.04983772 20.1098182,1.5272 20.1098182,1.5272 C19.6146633,2.56923522 19.3750035,3.9115539 20.6926758,5.13697761" id="Fill-3" fill="#FAC70B"></path>
        </g>
        <g id="logotype" transform="translate(58.166900, 16.400600)" fill="#666666">
          <path d="M0,0.0006 L4.36064735,0.0006 L8.32947685,11.5134045 L12.4537527,0.0006 L16.8144,0.0006 L10.1668871,16.4695 L6.24230452,16.4695 L0,0.0006 Z M17.6934,0.0006 L22.0703484,0.0006 L26.1957883,11.8594528 L30.2263302,0.0006 L34.5241,0.0006 L27.7351141,16.9574867 C26.5311331,19.9463939 24.6069758,22.0748758 21.959149,23.34 L19.9668748,20.5024151 C21.7938054,19.6953632 23.1217942,18.3827309 23.9525876,16.5633451 L17.6934,0.0006 Z M35.674,0.673323237 C37.8432644,0.22287703 40.2413321,0 42.8676208,0 C48.6284558,0 51.508,2.60824777 51.508,7.82767589 C51.508,13.5902201 48.8712318,16.4694395 43.5976953,16.4694395 C42.2894996,16.4694395 41.023222,16.2078522 39.8017737,15.6846777 L39.8017737,22.4314 L35.674,22.4314 L35.674,0.673323237 Z M39.8018,12.1726245 L39.8018,3.57775853 C40.5801975,3.4311285 41.6560978,3.3584 43.0364872,3.3584 C45.9655208,3.3584 47.428,4.83643072 47.428,7.79601129 C47.428,11.2781813 46.1483307,13.0178 43.5837525,13.0178 C42.1923014,13.0178 40.9289336,12.7356838 39.8018,12.1726245 Z M54.0726,16.4695 L54.0726,0.0006 L57.2636345,0.0006 L57.7788809,2.10268831 C59.2110912,0.701491609 60.7236451,0.0006 62.3212,0.0006 L62.3212,3.358428 C60.7859404,3.358428 59.4107856,4.05169485 58.1974822,5.44292071 L58.1974822,16.4695 L54.0726,16.4695 Z M64.3088,0.0006 L66.1770687,0.0006 L72.1556451,15.044256 L78.1639135,0.0006 L80.0316,0.0006 L73.0731868,16.4695 L71.1734795,16.4695 L64.3088,0.0006 Z M82.0489,0.673336314 C84.2187424,0.224063414 86.4613593,0.0006 88.7732574,0.0006 C94.0147629,0.0006 96.6393,2.60825968 96.6393,7.82709815 C96.6393,13.5902255 94.0013724,16.469443 88.7284283,16.469443 C87.419653,16.469443 85.7376903,16.2078559 83.6825404,15.6846818 L83.6825404,22.4314 L82.0489,22.4314 L82.0489,0.673336314 Z M83.6826,14.0523956 L83.6826,1.85224426 C85.6032715,1.60121475 87.2881528,1.4757 88.7419014,1.4757 C92.9459539,1.4757 95.0506,3.58129797 95.0506,7.79601302 C95.0506,12.5339017 92.9354743,14.9005 88.7110449,14.9005 C87.3195915,14.9005 85.6446076,14.6177985 83.6826,14.0523956 Z M100.2129,16.4695 L100.2129,0.0006 L101.378458,0.0006 L101.583391,2.10268831 C104.292353,0.701491609 106.646175,0.0006 108.648933,0.0006 C112.210231,0.0006 113.9935,1.730248 113.9935,5.19071703 L113.9935,16.4695 L112.35578,16.4695 L112.35578,5.14379542 C112.35578,2.69800629 110.991693,1.47569824 108.262354,1.47569824 C106.299768,1.47569824 104.161941,2.16955161 101.845962,3.55960442 L101.845962,16.4695 L100.2129,16.4695 Z" id="Fill-1"></path>
        </g>
      </g>
    </g>
  </g>
</svg>
